<svg width="35" height="33" viewBox="0 0 35 33" fill="none" xmlns="http://www.w3.org/2000/svg">
<path d="M24.7702 2.69617H10.2297C6.21447 2.69617 2.95947 5.71394 2.95947 9.43656V22.9173C2.95947 26.64 6.21447 29.6577 10.2297 29.6577H24.7702C28.7854 29.6577 32.0404 26.64 32.0404 22.9173V9.43656C32.0404 5.71394 28.7854 2.69617 24.7702 2.69617Z" stroke="#0AA370" stroke-width="2" stroke-linecap="round" stroke-linejoin="round"/>
<path d="M23.3162 15.3277C23.4956 16.4496 23.2889 17.5954 22.7255 18.6022C22.162 19.6089 21.2705 20.4253 20.1778 20.9352C19.0851 21.4452 17.8467 21.6227 16.6389 21.4425C15.4311 21.2623 14.3153 20.7336 13.4502 19.9316C12.5852 19.1296 12.0149 18.0951 11.8206 16.9753C11.6262 15.8555 11.8177 14.7074 12.3677 13.6943C12.9177 12.6812 13.7983 11.8547 14.8841 11.3323C15.97 10.8099 17.2059 10.6183 18.416 10.7847C19.6504 10.9544 20.7932 11.4876 21.6756 12.3057C22.5579 13.1238 23.1331 14.1833 23.3162 15.3277Z" stroke="#0AA370" stroke-width="2" stroke-linecap="round" stroke-linejoin="round"/>
<path d="M25.4972 8.76245H25.5112" stroke="#0AA370" stroke-width="2" stroke-linecap="round" stroke-linejoin="round"/>
</svg>
